<?xml version="1.0" standalone="no"?><!DOCTYPE svg PUBLIC "-//W3C//DTD SVG 1.1//EN" "http://www.w3.org/Graphics/SVG/1.1/DTD/svg11.dtd"><svg t="1705319984384" class="icon" viewBox="0 0 1024 1024" version="1.1" xmlns="http://www.w3.org/2000/svg" p-id="11293" xmlns:xlink="http://www.w3.org/1999/xlink" width="200" height="200"><path d="M512 0c281.6 0 512 230.4 512 512s-230.4 512-512 512S0 793.6 0 512 230.4 0 512 0z" fill="#67B5AE" p-id="11294"></path><path d="M542.72 207.36l215.04 125.44c20.48 10.24 30.72 33.28 30.72 56.32v248.32c0 23.04-12.8 43.52-30.72 56.32l-215.04 122.88c-20.48 10.24-43.52 10.24-64 0L266.24 691.2c-20.48-10.24-30.72-33.28-30.72-56.32v-245.76c0-23.04 12.8-43.52 30.72-56.32l215.04-122.88c17.92-12.8 43.52-12.8 61.44-2.56z m-10.24 23.04c-12.8-7.68-25.6-7.68-38.4 0l-215.04 125.44c-12.8 5.12-20.48 17.92-20.48 33.28v248.32c0 12.8 7.68 25.6 20.48 33.28l215.04 122.88c12.8 7.68 25.6 7.68 38.4 0l215.04-122.88c12.8-7.68 20.48-20.48 20.48-33.28v-248.32c0-12.8-7.68-25.6-20.48-33.28L532.48 230.4z" fill="#FFFFFF" p-id="11295"></path><path d="M512 670.72c-25.6 0-51.2-2.56-71.68-7.68-28.16-7.68-46.08-20.48-48.64-33.28V391.68h12.8c17.92 15.36 53.76 30.72 107.52 30.72s89.6-12.8 107.52-30.72h12.8v238.08c-5.12 23.04-56.32 40.96-120.32 40.96z m99.84-248.32c-25.6 12.8-61.44 20.48-99.84 20.48-40.96 0-74.24-7.68-99.84-20.48v202.24c0 2.56 12.8 10.24 35.84 17.92 17.92 5.12 40.96 7.68 66.56 7.68 53.76 0 97.28-15.36 99.84-25.6v-202.24z" fill="#FFFFFF" p-id="11296"></path><path d="M391.68 550.4c2.56 12.8 25.6 30.72 51.2 40.96l7.68-17.92c-23.04-7.68-38.4-20.48-40.96-25.6l-17.92 2.56zM391.68 471.04c7.68 25.6 64 53.76 122.88 53.76 61.44 0 102.4-17.92 117.76-48.64l-17.92-10.24c-12.8 23.04-46.08 38.4-99.84 38.4-48.64 0-97.28-23.04-102.4-38.4l-20.48 5.12z" fill="#FFFFFF" p-id="11297"></path><path d="M442.88 550.4h204.8v128h-204.8z" fill="#67B5AE" p-id="11298"></path><path d="M512 435.2c-66.56 0-120.32-20.48-120.32-46.08s53.76-43.52 120.32-43.52 120.32 20.48 120.32 46.08S578.56 435.2 512 435.2z m0-5.12c56.32 0 102.4-17.92 102.4-38.4S563.2 358.4 512 358.4s-102.4 12.8-102.4 33.28 46.08 38.4 102.4 38.4zM496.64 560.64c12.8 0 20.48 2.56 28.16 7.68 7.68 5.12 10.24 12.8 12.8 23.04h-15.36c-2.56-5.12-5.12-10.24-7.68-12.8-2.56-2.56-10.24-5.12-15.36-5.12-5.12 0-10.24 0-15.36 2.56-5.12 2.56-5.12 5.12-5.12 10.24s2.56 7.68 7.68 10.24c2.56 0 7.68 2.56 17.92 5.12 12.8 5.12 23.04 7.68 25.6 10.24 7.68 5.12 12.8 12.8 12.8 20.48 0 7.68-2.56 15.36-10.24 20.48-7.68 5.12-17.92 7.68-28.16 7.68-12.8 0-20.48-2.56-28.16-7.68-7.68-5.12-12.8-15.36-12.8-28.16h15.36c0 7.68 2.56 12.8 7.68 15.36 5.12 2.56 10.24 5.12 17.92 5.12 7.68 0 12.8 0 17.92-2.56 5.12-2.56 5.12-5.12 5.12-10.24s-2.56-10.24-10.24-12.8c-2.56 0-7.68-2.56-20.48-7.68-12.8-5.12-20.48-7.68-23.04-7.68-7.68-5.12-10.24-10.24-10.24-20.48 0-7.68 2.56-15.36 10.24-20.48 2.56 0 12.8-2.56 23.04-2.56z m97.28 0c15.36 0 28.16 5.12 35.84 15.36 7.68 10.24 12.8 20.48 12.8 35.84 0 15.36-5.12 25.6-12.8 35.84 2.56 5.12 7.68 10.24 10.24 15.36l-10.24 10.24c-2.56-5.12-7.68-10.24-10.24-15.36-7.68 5.12-15.36 5.12-25.6 5.12-15.36 0-28.16-5.12-35.84-15.36-7.68-10.24-12.8-20.48-12.8-35.84 0-15.36 5.12-28.16 12.8-35.84 7.68-10.24 20.48-15.36 35.84-15.36z m0 15.36c-10.24 0-17.92 2.56-23.04 10.24-5.12 7.68-7.68 15.36-7.68 25.6s2.56 20.48 7.68 25.6c5.12 7.68 12.8 10.24 23.04 10.24 7.68 0 12.8-2.56 17.92-5.12l-15.36-15.36 10.24-10.24 15.36 15.36c2.56-5.12 5.12-12.8 5.12-23.04 0-12.8-2.56-20.48-7.68-28.16-7.68-2.56-15.36-5.12-25.6-5.12z m61.44-12.8h15.36v84.48h53.76v12.8h-69.12V563.2z" fill="#FFFFFF" p-id="11299"></path></svg>